# xmcd
#
# Track frame offsets:
#	150
#	31550
#	57650
#	67962
#	76805
#	102725
#	140765
#	181445
#	204175
#	223122
#	231265
#	255020
#	273365
#	298347
#
# Disc length: 4260 seconds
#
# Revision: 0
# Processed by: cddbd v1.5.2PL0 Copyright (c) Steve Scherf et al.
# Submitted via: EasyCDDAExtractor 16.0.6.1
#
DISCID=cf10a20e
DTITLE=Άνευ ερμηνευτού - Τα καλύτερα του Βαγγέλη Παπαθανασίου
DYEAR=2002
DGENRE=Ηλεκτρονική
TTITLE0=Άνευ ερμηνευτού - Spiral [1977]
TTITLE1=Άνευ ερμηνευτού - Pulstar [1975]
TTITLE2=Άνευ ερμηνευτού - Freefall [1975]
TTITLE3=Άνευ ερμηνευτού - Sword of Orion [1975]
TTITLE4=Άνευ ερμηνευτού - Alpha [1975]
TTITLE5=Άνευ ερμηνευτού - Ballad [1977]
TTITLE6=Άνευ ερμηνευτού - To the unknown man [1977]
TTITLE7=Άγνωστος - So long ago, so clear [1975]
TTITLE8=Άγνωστος - Shine for me [1991]
TTITLE9=Άγνωστος - Mare tranguillitatis [1975]
TTITLE10=Άνευ ερμηνευτού - Dervish D [1977]
TTITLE11=Άνευ ερμηνευτού - Theme from the tv series ''Cosmos''(Heaven and Hell 3
TTITLE11=rd movement)[1975]
TTITLE12=Άγνωστος - 12 o'clock [1975]
TTITLE13=Άγνωστος - Bacchanale [1975]
EXTD=
EXTT0=
EXTT1=
EXTT2=
EXTT3=
EXTT4=
EXTT5=
EXTT6=
EXTT7=
EXTT8=
EXTT9=
EXTT10=
EXTT11=
EXTT12=
EXTT13=
PLAYORDER=
